<?xml version="1.0" encoding="UTF-8"?>
<svg version="1.1" xmlns="http://www.w3.org/2000/svg" width="512" height="512">
<path d="M0 0 C0.60376465 0.43538086 1.2075293 0.87076172 1.82958984 1.31933594 C20.86129777 15.11152616 38.54919836 30.35979164 53 49 C53.77472656 49.95777344 54.54945313 50.91554688 55.34765625 51.90234375 C71.65965082 72.4022038 83.97143073 95.46835778 93 120 C93.24588867 120.66451172 93.49177734 121.32902344 93.74511719 122.01367188 C99.87198911 138.81231357 103.73905545 156.28405215 106 174 C106.09571289 174.70012207 106.19142578 175.40024414 106.29003906 176.12158203 C107.34601697 184.91572066 107.24381443 193.7807814 107.25 202.625 C107.25067474 203.49204559 107.25134949 204.35909119 107.25204468 205.25241089 C107.18396142 260.45775352 88.79621786 312.39762567 55 356 C54.32582031 356.87011719 53.65164063 357.74023438 52.95703125 358.63671875 C48.36029463 364.40635627 43.46180669 369.8518203 38.4375 375.25 C37.51783447 376.24241699 37.51783447 376.24241699 36.57958984 377.25488281 C32.29343831 381.80927552 27.77720228 385.96690839 23 390 C22.37649658 390.52964355 21.75299316 391.05928711 21.1105957 391.60498047 C-12.33608908 419.78305692 -51.90089969 439.06736731 -95 447 C-95.87897949 447.16371094 -96.75795898 447.32742188 -97.66357422 447.49609375 C-124.82833756 452.29366553 -154.90062782 452.02746275 -182 447 C-182.88751953 446.83902832 -183.77503906 446.67805664 -184.68945312 446.51220703 C-228.18281324 438.32771898 -269.08045946 418.57547112 -302 389 C-302.52561523 388.52933105 -303.05123047 388.05866211 -303.59277344 387.57373047 C-307.10164127 384.42379631 -310.56333328 381.22853772 -314 378 C-314.98419922 377.07960938 -314.98419922 377.07960938 -315.98828125 376.140625 C-321.14034727 371.16621643 -325.52685381 365.57974333 -330 360 C-330.63679688 359.24203125 -331.27359375 358.4840625 -331.9296875 357.703125 C-361.16856357 322.5194152 -378.47334701 278.13592634 -384 233 C-384.09571289 232.29029053 -384.19142578 231.58058105 -384.29003906 230.84936523 C-385.34814411 222.04414875 -385.24382011 213.16796218 -385.25 204.3125 C-385.25067474 203.44351074 -385.25134949 202.57452148 -385.25204468 201.67919922 C-385.23508595 187.90680716 -384.57472158 174.56036924 -382 161 C-381.75056641 159.61965576 -381.75056641 159.61965576 -381.49609375 158.21142578 C-372.33295476 108.45049043 -347.81418365 65.14976615 -313 29 C-312.2471875 28.2059375 -311.494375 27.411875 -310.71875 26.59375 C-305.53848397 21.24363918 -299.83406971 16.6163907 -294 12 C-293.03449219 11.21753906 -292.06898438 10.43507812 -291.07421875 9.62890625 C-255.77421815 -18.4047664 -213.5250191 -35.1079674 -169 -41 C-168.26136719 -41.103125 -167.52273437 -41.20625 -166.76171875 -41.3125 C-109.73781539 -48.21850906 -46.75803478 -33.84044541 0 0 Z " fill="#FCBD3E" transform="translate(395,52)"/>
<path d="M0 0 C0.8156543 0.56847656 1.63130859 1.13695312 2.47167969 1.72265625 C4.2442468 2.95899017 6.01432959 4.19889171 7.78222656 5.44189453 C10.76146657 7.5332985 13.75052178 9.61000784 16.7421875 11.68359375 C22.37717587 15.59107068 28.00713203 19.50544438 33.625 23.4375 C34.35912109 23.94667969 35.09324219 24.45585937 35.84960938 24.98046875 C37.45942605 26.10750189 39.04560115 27.2682213 40.625 28.4375 C40.625 28.7675 40.625 29.0975 40.625 29.4375 C40.08264709 29.535504 39.54029419 29.633508 38.98150635 29.73448181 C33.33601337 30.75490071 27.69085936 31.77717905 22.04589844 32.80053711 C19.93921402 33.18219929 17.83244367 33.5633875 15.72558594 33.9440918 C12.69703818 34.4914283 9.66880366 35.04046931 6.640625 35.58984375 C5.69882385 35.7596727 4.75702271 35.92950165 3.78668213 36.10447693 C2.90607117 36.26456741 2.02546021 36.4246579 1.11816406 36.58959961 C0.34539124 36.72949814 -0.42738159 36.86939667 -1.22357178 37.01353455 C-3.28855537 37.42046502 -5.33314395 37.92703599 -7.375 38.4375 C16.88 38.9325 16.88 38.9325 41.625 39.4375 C34.875 47.3125 34.875 47.3125 31.54736328 50.62866211 C30.80704865 51.36890121 30.06673401 52.10914032 29.3039856 52.87181091 C28.52562347 53.64501175 27.74726135 54.41821259 26.9453125 55.21484375 C26.13254852 56.02619278 25.31978455 56.83754181 24.48239136 57.67347717 C21.90728262 60.2430259 19.3287038 62.80905968 16.75 65.375 C14.99456054 67.12541929 13.23934983 68.876068 11.484375 70.62695312 C7.20097854 74.90022813 2.91289919 79.16872425 -1.375 83.4375 C6.875 83.7675 15.125 84.0975 23.625 84.4375 C24.615 82.4575 24.615 82.4575 25.625 80.4375 C27.19384766 78.62573242 27.19384766 78.62573242 29.0390625 76.79296875 C29.71839844 76.11556641 30.39773437 75.43816406 31.09765625 74.74023438 C31.80792969 74.04220703 32.51820313 73.34417969 33.25 72.625 C33.93707031 71.93857422 34.62414062 71.25214844 35.33203125 70.54492188 C38.6726733 67.23248412 42.05875747 64.01870925 45.62109375 60.9453125 C49.9636657 57.19573433 54.0183321 53.19178208 58.0625 49.125 C58.78115234 48.41021484 59.49980469 47.69542969 60.24023438 46.95898438 C61.26407227 45.93321289 61.26407227 45.93321289 62.30859375 44.88671875 C62.92275146 44.27143311 63.53690918 43.65614746 64.16967773 43.0222168 C65.71670925 41.48374733 65.71670925 41.48374733 66.625 39.4375 C86.425 39.4375 106.225 39.4375 126.625 39.4375 C124.83741555 43.0126689 123.56904498 44.73825531 120.81787109 47.47167969 C120.03721283 48.25218689 119.25655457 49.03269409 118.45223999 49.83685303 C117.60948517 50.66928528 116.76673035 51.50171753 115.8984375 52.359375 C115.03562164 53.21936096 114.17280579 54.07934692 113.28384399 54.96539307 C110.52721971 57.7108231 107.76372201 60.4492169 105 63.1875 C103.12975143 65.04771783 101.25995411 66.90838946 99.390625 68.76953125 C94.8073064 73.33079945 90.21832522 77.88631011 85.625 82.4375 C94.16488607 83.93097484 104.62461655 85.74763281 112.22729492 80.71484375 C117.39754182 75.83962497 121.62102375 70.08770713 125.96368408 64.48162842 C135.40415285 52.5636549 145.68316124 40.3840577 161.44000244 38.15993118 C169.04081115 37.32940351 176.62580828 37.40952467 184.25 37.8125 C184.93311752 37.84845276 185.61623505 37.88440552 186.3200531 37.92144775 C194.79786743 38.40153378 203.21729141 39.24653976 211.625 40.4375 C207.1271065 45.82940397 202.36373458 50.83141684 197.3828125 55.77734375 C196.61444061 56.54430069 195.84606873 57.31125763 195.05441284 58.10145569 C192.62196491 60.5283474 190.18604678 62.95172127 187.75 65.375 C186.09091448 67.02906486 184.43205798 68.68335945 182.7734375 70.33789062 C178.72660291 74.37375433 174.67692047 78.40674277 170.625 82.4375 C179.51230728 83.99051738 189.4514678 85.34900474 197.60046387 80.76300049 C204.70285293 75.33347292 210.56554836 68.64490648 216.5 62 C218.33624116 60.02112319 220.19074599 58.05982223 222.046875 56.09960938 C226.08375729 51.82014288 230.06059817 47.49305835 233.98947144 43.11427307 C236.43855984 40.60342393 237.38015427 40.44580197 240.97314453 40.32397461 C242.40137697 40.32413312 243.82961542 40.32979265 245.2578125 40.33984375 C246.38556595 40.34196617 246.38556595 40.34196617 247.53610229 40.34413147 C249.9407751 40.34973535 252.34535527 40.36228843 254.75 40.375 C256.37890491 40.3800145 258.00781127 40.3845775 259.63671875 40.38867188 C263.63284827 40.39970603 267.62890842 40.41697321 271.625 40.4375 C271.71630207 70.09448628 271.78706536 99.75146591 271.82926132 129.40856328 C271.83426399 132.91194281 271.83944129 136.41532206 271.84472656 139.91870117 C271.8457758 140.61614423 271.84682505 141.3135873 271.84790608 142.032165 C271.86529885 153.31668349 271.89683029 164.60112026 271.93361118 175.88559031 C271.97105208 187.46938753 271.9929432 199.05313715 272.00135398 210.63699204 C272.00656774 217.1414374 272.01881818 223.64569755 272.04792023 230.15008354 C272.07509758 236.27398896 272.08344014 242.3976331 272.07743073 248.52159309 C272.07852991 250.76734462 272.0864697 253.013105 272.1018219 255.25880432 C272.12178561 258.33007665 272.11691541 261.4003684 272.10601807 264.47166443 C272.11766943 265.35593076 272.1293208 266.24019709 272.14132524 267.15125936 C272.0622213 275.42532614 269.38519757 282.38255945 263.625 288.4375 C253.07247552 297.41269578 238.08736941 295.27140697 225.17724609 295.19799805 C222.48233416 295.20449702 219.78752128 295.21333847 217.09263611 295.22499084 C210.55353698 295.24772784 204.01486735 295.23839628 197.47577713 295.21748998 C192.15908875 295.2011592 186.84251701 295.19701781 181.52580643 295.20145607 C180.76709519 295.20208675 180.00838396 295.20271742 179.22668148 295.20336721 C177.68506217 295.20471335 176.14344289 295.20609293 174.60182364 295.20750556 C160.17201997 295.2194209 145.74245097 295.19543033 131.3127007 295.15848748 C118.94601435 295.12758519 106.57959775 295.12523211 94.21289062 295.14428711 C79.82918048 295.16642465 65.44562132 295.17252138 51.0619036 295.15196449 C49.52678976 295.14980168 47.99167591 295.14765259 46.45656204 295.14551735 C45.70137869 295.14445098 44.94619534 295.14338462 44.16812765 295.14228594 C38.86018917 295.13583107 33.55232873 295.1405661 28.24439621 295.14954185 C21.77252711 295.16010302 15.30097381 295.15249494 8.82916282 295.12208607 C5.53051713 295.10701096 2.23246815 295.10243016 -1.06620598 295.11427689 C-4.6490322 295.12572952 -8.2304283 295.10628123 -11.81314087 295.07914734 C-12.8458378 295.08961883 -13.87853473 295.10009032 -14.94252551 295.11087912 C-22.92609096 294.99853974 -29.57156621 292.95388529 -35.52710211 287.44781893 C-41.41173061 281.23385307 -43.83623179 275.12193633 -43.76026917 266.60514832 C-43.76550486 265.84632003 -43.77074056 265.08749174 -43.77613491 264.30566865 C-43.79003927 261.7767754 -43.78280834 259.24839695 -43.77563477 256.71948242 C-43.7813823 254.89811758 -43.78846712 253.07675654 -43.79678345 251.25540161 C-43.81189357 247.33117843 -43.81767071 243.40709128 -43.81625557 239.48283958 C-43.81420759 233.22215255 -43.83390085 226.96164401 -43.85643005 220.70100403 C-43.89364288 209.60194737 -43.91287884 198.50291438 -43.92797852 187.40380859 C-43.9533621 168.76128255 -43.99499237 150.11879479 -44.0560565 131.47635126 C-44.06295898 129.35328324 -44.06961448 127.2302144 -44.07602358 125.10714483 C-44.16216493 96.8847523 -44.47812082 68.73728568 -45.95288086 40.5480957 C-46.27191317 34.37123423 -46.50059194 28.20158733 -46.56079102 22.01635742 C-46.57387015 21.32423566 -46.58694929 20.6321139 -46.60042477 19.91901875 C-46.61541888 12.71849057 -44.24701358 8.67249535 -39.61328125 3.453125 C-34.7613449 -1.31023645 -29.93168596 -3.14831283 -23.375 -4.5625 C-22.48941406 -4.77777344 -21.60382813 -4.99304688 -20.69140625 -5.21484375 C-11.59658039 -7.28246389 -7.44408217 -5.27869996 0 0 Z " fill="#6B7DBC" transform="translate(143.375,134.5625)"/>
<path d="M0 0 C0.8156543 0.56847656 1.63130859 1.13695312 2.47167969 1.72265625 C4.2442468 2.95899017 6.01432959 4.19889171 7.78222656 5.44189453 C10.76146657 7.5332985 13.75052178 9.61000784 16.7421875 11.68359375 C22.37717587 15.59107068 28.00713203 19.50544438 33.625 23.4375 C34.35912109 23.94667969 35.09324219 24.45585937 35.84960938 24.98046875 C37.45942605 26.10750189 39.04560115 27.2682213 40.625 28.4375 C40.625 28.7675 40.625 29.0975 40.625 29.4375 C40.08264709 29.535504 39.54029419 29.633508 38.98150635 29.73448181 C33.33601337 30.75490071 27.69085936 31.77717905 22.04589844 32.80053711 C19.93921402 33.18219929 17.83244367 33.5633875 15.72558594 33.9440918 C12.69703818 34.4914283 9.66880366 35.04046931 6.640625 35.58984375 C5.69882385 35.7596727 4.75702271 35.92950165 3.78668213 36.10447693 C2.90607117 36.26456741 2.02546021 36.4246579 1.11816406 36.58959961 C0.34539124 36.72949814 -0.42738159 36.86939667 -1.22357178 37.01353455 C-3.28855537 37.42046502 -5.33314395 37.92703599 -7.375 38.4375 C16.88 38.9325 16.88 38.9325 41.625 39.4375 C34.875 47.3125 34.875 47.3125 31.54736328 50.62866211 C30.80704865 51.36890121 30.06673401 52.10914032 29.3039856 52.87181091 C28.52562347 53.64501175 27.74726135 54.41821259 26.9453125 55.21484375 C26.13254852 56.02619278 25.31978455 56.83754181 24.48239136 57.67347717 C21.90728262 60.2430259 19.3287038 62.80905968 16.75 65.375 C14.99456054 67.12541929 13.23934983 68.876068 11.484375 70.62695312 C7.20097854 74.90022813 2.91289919 79.16872425 -1.375 83.4375 C6.875 83.7675 15.125 84.0975 23.625 84.4375 C24.615 82.4575 24.615 82.4575 25.625 80.4375 C27.19384766 78.62573242 27.19384766 78.62573242 29.0390625 76.79296875 C29.71839844 76.11556641 30.39773437 75.43816406 31.09765625 74.74023438 C31.80792969 74.04220703 32.51820313 73.34417969 33.25 72.625 C33.93707031 71.93857422 34.62414062 71.25214844 35.33203125 70.54492188 C38.6726733 67.23248412 42.05875747 64.01870925 45.62109375 60.9453125 C49.9636657 57.19573433 54.0183321 53.19178208 58.0625 49.125 C58.78115234 48.41021484 59.49980469 47.69542969 60.24023438 46.95898438 C61.26407227 45.93321289 61.26407227 45.93321289 62.30859375 44.88671875 C62.92275146 44.27143311 63.53690918 43.65614746 64.16967773 43.0222168 C65.71670925 41.48374733 65.71670925 41.48374733 66.625 39.4375 C86.425 39.4375 106.225 39.4375 126.625 39.4375 C124.83741555 43.0126689 123.56904498 44.73825531 120.81787109 47.47167969 C120.03721283 48.25218689 119.25655457 49.03269409 118.45223999 49.83685303 C117.60948517 50.66928528 116.76673035 51.50171753 115.8984375 52.359375 C115.03562164 53.21936096 114.17280579 54.07934692 113.28384399 54.96539307 C110.52721971 57.7108231 107.76372201 60.4492169 105 63.1875 C103.12975143 65.04771783 101.25995411 66.90838946 99.390625 68.76953125 C94.8073064 73.33079945 90.21832522 77.88631011 85.625 82.4375 C94.16488607 83.93097484 104.62461655 85.74763281 112.22729492 80.71484375 C117.39754182 75.83962497 121.62102375 70.08770713 125.96368408 64.48162842 C135.40415285 52.5636549 145.68316124 40.3840577 161.44000244 38.15993118 C169.04081115 37.32940351 176.62580828 37.40952467 184.25 37.8125 C184.93311752 37.84845276 185.61623505 37.88440552 186.3200531 37.92144775 C194.79786743 38.40153378 203.21729141 39.24653976 211.625 40.4375 C207.1271065 45.82940397 202.36373458 50.83141684 197.3828125 55.77734375 C196.61444061 56.54430069 195.84606873 57.31125763 195.05441284 58.10145569 C192.62196491 60.5283474 190.18604678 62.95172127 187.75 65.375 C186.09091448 67.02906486 184.43205798 68.68335945 182.7734375 70.33789062 C178.72660291 74.37375433 174.67692047 78.40674277 170.625 82.4375 C179.51230728 83.99051738 189.4514678 85.34900474 197.60046387 80.76300049 C204.70285293 75.33347292 210.56554836 68.64490648 216.5 62 C218.33624116 60.02112319 220.19074599 58.05982223 222.046875 56.09960938 C226.08375729 51.82014288 230.06059817 47.49305835 233.98947144 43.11427307 C236.43855984 40.60342393 237.38015427 40.44580197 240.97314453 40.32397461 C242.40137697 40.32413312 243.82961542 40.32979265 245.2578125 40.33984375 C246.38556595 40.34196617 246.38556595 40.34196617 247.53610229 40.34413147 C249.9407751 40.34973535 252.34535527 40.36228843 254.75 40.375 C256.37890491 40.3800145 258.00781127 40.3845775 259.63671875 40.38867188 C263.63284827 40.39970603 267.62890842 40.41697321 271.625 40.4375 C271.71630207 70.09448628 271.78706536 99.75146591 271.82926132 129.40856328 C271.83426399 132.91194281 271.83944129 136.41532206 271.84472656 139.91870117 C271.8457758 140.61614423 271.84682505 141.3135873 271.84790608 142.032165 C271.86529885 153.31668349 271.89683029 164.60112026 271.93361118 175.88559031 C271.97105208 187.46938753 271.9929432 199.05313715 272.00135398 210.63699204 C272.00656774 217.1414374 272.01881818 223.64569755 272.04792023 230.15008354 C272.07509758 236.27398896 272.08344014 242.3976331 272.07743073 248.52159309 C272.07852991 250.76734462 272.0864697 253.013105 272.1018219 255.25880432 C272.12178561 258.33007665 272.11691541 261.4003684 272.10601807 264.47166443 C272.11766943 265.35593076 272.1293208 266.24019709 272.14132524 267.15125936 C272.0622213 275.42532614 269.38519757 282.38255945 263.625 288.4375 C253.07247552 297.41269578 238.08736941 295.27140697 225.17724609 295.19799805 C222.48233416 295.20449702 219.78752128 295.21333847 217.09263611 295.22499084 C210.55353698 295.24772784 204.01486735 295.23839628 197.47577713 295.21748998 C192.15908875 295.2011592 186.84251701 295.19701781 181.52580643 295.20145607 C180.76709519 295.20208675 180.00838396 295.20271742 179.22668148 295.20336721 C177.68506217 295.20471335 176.14344289 295.20609293 174.60182364 295.20750556 C160.17201997 295.2194209 145.74245097 295.19543033 131.3127007 295.15848748 C118.94601435 295.12758519 106.57959775 295.12523211 94.21289062 295.14428711 C79.82918048 295.16642465 65.44562132 295.17252138 51.0619036 295.15196449 C49.52678976 295.14980168 47.99167591 295.14765259 46.45656204 295.14551735 C45.70137869 295.14445098 44.94619534 295.14338462 44.16812765 295.14228594 C38.86018917 295.13583107 33.55232873 295.1405661 28.24439621 295.14954185 C21.77252711 295.16010302 15.30097381 295.15249494 8.82916282 295.12208607 C5.53051713 295.10701096 2.23246815 295.10243016 -1.06620598 295.11427689 C-4.6490322 295.12572952 -8.2304283 295.10628123 -11.81314087 295.07914734 C-12.8458378 295.08961883 -13.87853473 295.10009032 -14.94252551 295.11087912 C-22.92609096 294.99853974 -29.57156621 292.95388529 -35.52710211 287.44781893 C-41.41173061 281.23385307 -43.83623179 275.12193633 -43.76026917 266.60514832 C-43.76550486 265.84632003 -43.77074056 265.08749174 -43.77613491 264.30566865 C-43.79003927 261.7767754 -43.78280834 259.24839695 -43.77563477 256.71948242 C-43.7813823 254.89811758 -43.78846712 253.07675654 -43.79678345 251.25540161 C-43.81189357 247.33117843 -43.81767071 243.40709128 -43.81625557 239.48283958 C-43.81420759 233.22215255 -43.83390085 226.96164401 -43.85643005 220.70100403 C-43.89364288 209.60194737 -43.91287884 198.50291438 -43.92797852 187.40380859 C-43.9533621 168.76128255 -43.99499237 150.11879479 -44.0560565 131.47635126 C-44.06295898 129.35328324 -44.06961448 127.2302144 -44.07602358 125.10714483 C-44.16216493 96.8847523 -44.47812082 68.73728568 -45.95288086 40.5480957 C-46.27191317 34.37123423 -46.50059194 28.20158733 -46.56079102 22.01635742 C-46.57387015 21.32423566 -46.58694929 20.6321139 -46.60042477 19.91901875 C-46.61541888 12.71849057 -44.24701358 8.67249535 -39.61328125 3.453125 C-34.7613449 -1.31023645 -29.93168596 -3.14831283 -23.375 -4.5625 C-22.48941406 -4.77777344 -21.60382813 -4.99304688 -20.69140625 -5.21484375 C-11.59658039 -7.28246389 -7.44408217 -5.27869996 0 0 Z M-25.375 122.4375 C-25.4575 146.919375 -25.54 171.40125 -25.625 196.625 C-25.66141602 204.35832764 -25.69783203 212.09165527 -25.73535156 220.05932617 C-25.74872839 226.98483683 -25.74872839 226.98483683 -25.7567749 233.91035461 C-25.76050513 236.99775158 -25.77550882 240.08487409 -25.79730225 243.17219543 C-25.82473164 247.11006751 -25.83296617 251.04754028 -25.8272891 254.98549902 C-25.82847625 256.43083544 -25.83641297 257.87618575 -25.85186052 259.3214401 C-25.87176187 261.27406288 -25.86457103 263.22690574 -25.85601807 265.17961121 C-25.85970524 266.27377948 -25.86339241 267.36794775 -25.86719131 268.49527264 C-25.20949675 272.42684741 -24.49316109 273.9001622 -21.375 276.4375 C-17.80178598 277.18707318 -14.27906699 277.11581568 -10.63941956 277.07914734 C-9.532887 277.08765286 -8.42635444 277.09615838 -7.28629059 277.10492164 C-3.56497014 277.12727149 0.15535788 277.11372973 3.87670898 277.1003418 C6.53913464 277.10875081 9.20148933 277.11910033 11.8638916 277.13175964 C18.35288093 277.15787019 24.84159343 277.15675214 31.33061533 277.14572146 C36.60415004 277.13716836 41.87760455 277.13798958 47.15114021 277.14551735 C47.90127753 277.14657224 48.65141486 277.14762713 49.42428361 277.14871398 C50.94811584 277.15088488 52.47194805 277.15307165 53.99578024 277.15527413 C68.29087324 277.17471241 82.58581085 277.16269829 96.88089115 277.14048818 C109.1486508 277.12223897 121.41610947 277.13313687 133.68383789 277.16479492 C147.92570809 277.20154529 162.16739029 277.21858347 176.40930802 277.20538265 C177.92788666 277.20404153 179.44646533 277.20273255 180.96504402 277.20145607 C181.71223439 277.2008254 182.45942476 277.20019474 183.22925727 277.19954496 C188.49640059 277.19651591 193.76340228 277.20778596 199.03051567 277.22470665 C205.44967923 277.24501733 211.86841805 277.24418452 218.28755932 277.21607425 C221.56336177 277.20228644 224.83826787 277.20138075 228.11406898 277.22002411 C231.66424438 277.23859487 235.21236462 277.22039935 238.76243591 277.19267273 C239.79959022 277.20673918 240.83674452 277.22080563 241.90532774 277.23529834 C246.90626304 277.21995327 246.90626304 277.21995327 251.38177186 275.27433205 C254.58900171 271.82802312 255.24565409 268.6636041 255.22627258 264.09732056 C255.23660381 262.22089339 255.23660381 262.22089339 255.24714375 260.30655861 C255.22941295 258.92783671 255.21122349 257.54912065 255.19262695 256.17041016 C255.19109419 254.68785861 255.19176459 253.20530342 255.19445324 251.72275352 C255.19557958 247.76138456 255.16665456 243.80077459 255.13140106 239.83958435 C255.10287281 236.11918817 255.10158267 232.39897424 255.09802246 228.6784668 C255.07181202 217.80637779 255.00200591 206.93442924 254.9375 196.0625 C254.834375 171.76625 254.73125 147.47 254.625 122.4375 C162.225 122.4375 69.825 122.4375 -25.375 122.4375 Z " fill="#3B3E42" transform="translate(143.375,134.5625)"/>
<path d="M0 0 C92.07 0 184.14 0 279 0 C279 3.63 279 7.26 279 11 C277.97519531 11.13277344 276.95039063 11.26554687 275.89453125 11.40234375 C274.5338426 11.58064088 273.17316615 11.75903123 271.8125 11.9375 C270.80219727 12.06801758 270.80219727 12.06801758 269.77148438 12.20117188 C264.01846771 12.95888627 258.45700078 14.11059543 252.8125 15.4375 C248.02860665 16.55103902 243.24327242 17.57677808 238.4140625 18.47265625 C190.67905773 28.90020584 140.92536943 52.0522414 101 80 C100.44505859 80.38510742 99.89011719 80.77021484 99.31835938 81.16699219 C87.31966841 89.50786832 76.10589433 98.57658116 65.47314453 108.61035156 C64.04986395 109.95296228 62.61689068 111.28527495 61.18359375 112.6171875 C48.91686953 124.37788753 40.50978177 137.85063777 33 153 C28.94343719 153.1238616 24.88761022 153.21445733 20.82958984 153.2746582 C19.45016298 153.2997593 18.07086858 153.33384873 16.69189453 153.37719727 C14.70664128 153.43802875 12.72040641 153.46357937 10.734375 153.48828125 C8.94338379 153.52755737 8.94338379 153.52755737 7.11621094 153.56762695 C4 153 4 153 1.83530045 150.85326862 C-0.32223457 147.49903472 -0.49444107 145.73650501 -0.48101807 141.78007507 C-0.48652805 140.53050113 -0.49203804 139.28092718 -0.497715 137.99348736 C-0.48352947 136.61113309 -0.4689779 135.22878255 -0.45410156 133.84643555 C-0.45287571 132.36400552 -0.45341107 130.88157315 -0.45556259 129.39914417 C-0.45646465 125.43368493 -0.43330306 121.46870972 -0.40512085 117.50336456 C-0.38231962 113.7807515 -0.38126726 110.0582554 -0.37841797 106.33557129 C-0.35743917 95.45281689 -0.3015944 84.57015231 -0.25 73.6875 C-0.1675 49.370625 -0.085 25.05375 0 0 Z " fill="#877BB9" transform="translate(118,258)"/>
<path d="M0 0 C5.13544149 0.85045528 8.83643049 4.0149449 13.00390625 7.0078125 C13.95450928 7.67329102 14.9051123 8.33876953 15.88452148 9.02441406 C17.90590495 10.44085313 19.92313486 11.86323513 21.93652344 13.29101562 C26.13491177 16.26460112 30.35780155 19.20231197 34.58227539 22.13867188 C36.57858998 23.52724553 38.57265662 24.91905787 40.56420898 26.31445312 C41.47372314 26.95060547 42.3832373 27.58675781 43.3203125 28.2421875 C44.11767822 28.80131836 44.91504395 29.36044922 45.73657227 29.93652344 C48.10234868 31.57682407 48.10234868 31.57682407 50.86303711 33.08691406 C51.95370483 33.79025879 51.95370483 33.79025879 53.06640625 34.5078125 C53.06640625 35.1678125 53.06640625 35.8278125 53.06640625 36.5078125 C52.06351562 36.64316406 51.060625 36.77851563 50.02734375 36.91796875 C48.49848494 37.13391418 46.96986404 37.35154673 45.44140625 37.5703125 C44.16946411 37.74916992 44.16946411 37.74916992 42.87182617 37.93164062 C36.39553973 38.89002723 30.00172208 40.11334026 23.59375 41.44140625 C21.04271441 41.95695635 18.49118393 42.46998997 15.93951416 42.98239136 C14.24008203 43.33110448 12.54299702 43.69146976 10.84857178 44.06375122 C-4.65738588 47.46346028 -4.65738588 47.46346028 -9.890625 44.6953125 C-11.27319406 43.67865798 -12.61971568 42.6118089 -13.93359375 41.5078125 C-15.70783044 40.23524022 -17.48540205 38.96730943 -19.265625 37.703125 C-20.19068848 37.01637695 -21.11575195 36.32962891 -22.06884766 35.62207031 C-27.80968005 31.38518531 -33.72054636 27.38516277 -39.59179688 23.33203125 C-52.45259928 14.42508571 -52.45259928 14.42508571 -55.93359375 11.5078125 C-55.93359375 11.1778125 -55.93359375 10.8478125 -55.93359375 10.5078125 C-55.07419189 10.34700195 -54.21479004 10.18619141 -53.3293457 10.02050781 C-50.75907615 9.53942939 -48.1888446 9.05815111 -45.61865234 8.57666016 C-42.69334644 8.02865511 -39.76786759 7.48158529 -36.84228516 6.93505859 C-30.33823999 5.71868615 -23.83598574 4.49701403 -17.34375 3.21875 C-15.91905396 2.9398291 -15.91905396 2.9398291 -14.46557617 2.65527344 C-12.74475174 2.31689576 -11.02479173 1.9740794 -9.3059082 1.62597656 C-6.21410616 1.0201879 -3.10422446 0.53734911 0 0 Z " fill="#3D3F43" transform="translate(214.93359375,112.4921875)"/>
<path d="M0 0 C6.49827034 -0.72983969 10.47586239 3.37762572 15.24047852 7.14916992 C18.25926307 9.46702059 21.41982823 11.57994494 24.56616211 13.71948242 C25.93078535 14.65562216 27.29536813 15.5918209 28.65991211 16.52807617 C31.52776234 18.4893373 34.40402382 20.43758853 37.28491211 22.37963867 C38.00203369 22.86585693 38.71915527 23.3520752 39.45800781 23.85302734 C40.82320868 24.77839164 42.19136284 25.69941991 43.56298828 26.61523438 C47.42987643 29.2422806 50.67978346 31.99402968 53.87866211 35.40698242 C40.68588316 38.09040574 27.48158836 40.71464107 14.25366211 43.21948242 C13.123396 43.43822021 11.99312988 43.65695801 10.82861328 43.88232422 C-3.64267933 46.59289648 -3.64267933 46.59289648 -9.80883789 42.68823242 C-11.59134693 41.44438259 -13.36156413 40.18279478 -15.12133789 38.90698242 C-16.0667041 38.24077881 -17.01207031 37.5745752 -17.98608398 36.88818359 C-19.99605477 35.47129457 -22.00164644 34.04817628 -24.00317383 32.61938477 C-27.16067754 30.37907012 -30.34270387 28.17883245 -33.53540039 25.98901367 C-35.6057868 24.56594411 -37.67610137 23.14277003 -39.74633789 21.71948242 C-40.72344727 21.04916992 -41.70055664 20.37885742 -42.70727539 19.68823242 C-43.61993164 19.05530273 -44.53258789 18.42237305 -45.47290039 17.77026367 C-46.27550293 17.21636963 -47.07810547 16.66247559 -47.9050293 16.09179688 C-50.18641537 14.35751121 -52.14399724 12.47723154 -54.12133789 10.40698242 C-45.51576942 8.1226059 -36.89220829 6.36214941 -28.12133789 4.84448242 C-26.94055664 4.63629883 -25.75977539 4.42811523 -24.54321289 4.21362305 C-16.37093031 2.77807341 -8.14794293 1.56319725 0 0 Z " fill="#3D3F42" transform="translate(297.121337890625,97.593017578125)"/>
<path d="M0 0 C0 14.19 0 28.38 0 43 C-24.75 43 -49.5 43 -75 43 C-73.02 40.69 -71.04 38.38 -69 36 C-67.84559653 34.63384121 -66.6914846 33.26743595 -65.5378418 31.90063477 C-44.70527299 7.50717929 -33.15847506 -5.23554869 0 0 Z " fill="#3B3E42" transform="translate(415,175)"/>
<path d="M0 0 C7.41808965 -0.47733794 13.30473314 2.20649899 18.890625 7.02734375 C26.95762174 15.51891927 29.02561433 27.82854134 28.80859375 39.23046875 C21.69117897 40.94888567 14.55173747 42.54953124 7.37109375 43.98046875 C6.70980469 44.12009033 6.04851562 44.25971191 5.3671875 44.40356445 C-0.96543793 45.63019015 -4.98926324 45.17849943 -10.37109375 41.67578125 C-11.94365505 40.57963176 -13.50840345 39.47221403 -15.06640625 38.35546875 C-16.7655789 37.16399675 -18.46479839 35.97259155 -20.1640625 34.78125 C-21.00984863 34.1826416 -21.85563477 33.5840332 -22.72705078 32.96728516 C-25.64217535 30.9127779 -28.58311736 28.89851458 -31.52978516 26.88964844 C-37.45415124 22.84824313 -43.33896669 18.75029201 -49.19140625 14.60546875 C-49.79766846 14.17919189 -50.40393066 13.75291504 -51.02856445 13.3137207 C-52.43486809 12.31169581 -53.81620119 11.2747651 -55.19140625 10.23046875 C-55.19140625 9.90046875 -55.19140625 9.57046875 -55.19140625 9.23046875 C-54.3914624 9.09471436 -53.59151855 8.95895996 -52.76733398 8.8190918 C-49.05414052 8.18762176 -45.34137306 7.55369426 -41.62890625 6.91796875 C-40.96346802 6.80408813 -40.29802979 6.69020752 -39.61242676 6.57287598 C-32.20200503 5.30209444 -24.80512612 4.00164829 -17.44140625 2.48046875 C-11.61020529 1.28311078 -5.90218869 0.62072929 0 0 Z " fill="#3D3F42" transform="translate(381.19140625,82.76953125)"/>
<path d="M0 0 C-1.64963546 3.49786519 -3.53441707 5.77946218 -6.2890625 8.51953125 C-7.14886719 9.37740234 -8.00867188 10.23527344 -8.89453125 11.11914062 C-9.79558594 12.00794922 -10.69664062 12.89675781 -11.625 13.8125 C-12.50285156 14.68970703 -13.38070312 15.56691406 -14.28515625 16.47070312 C-18.79959191 20.95495311 -23.38399353 25.28637041 -28.20898438 29.43383789 C-30.90022746 31.78720818 -33.41285105 34.28076928 -35.9375 36.8125 C-36.41767578 37.28880859 -36.89785156 37.76511719 -37.39257812 38.25585938 C-40.02810195 40.87789468 -40.02810195 40.87789468 -42 44 C-50.58 44 -59.16 44 -68 44 C-61.19293456 36.05842366 -54.29804495 28.26395958 -47.11254883 20.66381836 C-45.50525408 18.93969418 -43.92196331 17.19285353 -42.36450195 15.42358398 C-29.37681142 0.71849017 -19.51976111 -2.82223369 0 0 Z " fill="#F9F9F8" transform="translate(209,175)"/>
<path d="M0 0 C1.010625 0.78375 2.02125 1.5675 3.0625 2.375 C4.27545821 3.29156313 5.49046149 4.20542348 6.70703125 5.1171875 C7.38459473 5.62991211 8.0621582 6.14263672 8.76025391 6.67089844 C13.34178471 10.06210575 18.05859764 13.26350707 22.75 16.5 C30.26263178 21.69202929 37.69847281 26.97393764 45.0625 32.375 C41.21531505 34.43540371 37.3894024 35.23808307 33.125 36 C32.42181641 36.1340625 31.71863281 36.268125 30.99414062 36.40625 C21.42366562 38.1642754 21.42366562 38.1642754 16.8828125 35.53125 C15.64279337 34.65742243 14.41160203 33.77098899 13.1875 32.875 C11.7710153 31.86953526 10.35433643 30.86434404 8.9375 29.859375 C8.16535156 29.30572266 7.39320313 28.75207031 6.59765625 28.18164062 C1.82737309 24.78217073 -2.99862272 21.46228982 -7.8125 18.125 C-14.86319258 13.22121042 -21.90409313 8.3035466 -28.9375 3.375 C-25.23058087 1.40980076 -21.75190394 0.57123315 -17.625 -0.25 C-15.71267578 -0.64058594 -15.71267578 -0.64058594 -13.76171875 -1.0390625 C-4.45577467 -2.46489663 -4.45577467 -2.46489663 0 0 Z " fill="#FCFCFC" transform="translate(162.9375,125.625)"/>
<path d="M0 0 C1.06734375 0.72703125 2.1346875 1.4540625 3.234375 2.203125 C4.40627743 3.01037684 5.57815165 3.81766965 6.75 4.625 C7.96323097 5.45358011 9.1767799 6.28169483 10.390625 7.109375 C21.24023404 14.52364525 31.99478912 22.07477557 42.75 29.625 C39.25658295 31.9539447 36.04670083 32.52631992 32 33.25 C30.96359375 33.45109375 30.96359375 33.45109375 29.90625 33.65625 C18.699066 35.72073126 18.699066 35.72073126 13.671875 32.89453125 C12.60276297 32.09101199 11.54605251 31.2708174 10.5 30.4375 C9.27785603 29.51451971 8.05378967 28.5940811 6.828125 27.67578125 C6.17521484 27.18158691 5.52230469 26.68739258 4.84960938 26.17822266 C1.06358405 23.37744439 -2.85025686 20.76381839 -6.75 18.125 C-12.6529123 14.1019583 -18.54265126 10.06237204 -24.375 5.9375 C-24.96087891 5.52757813 -25.54675781 5.11765625 -26.15039062 4.6953125 C-30.13255085 1.85989829 -30.13255085 1.85989829 -31.25 -0.375 C-27.6692122 -1.07623016 -24.0850783 -1.7585758 -20.5 -2.4375 C-18.97632813 -2.73624023 -18.97632813 -2.73624023 -17.421875 -3.04101562 C-15.95234375 -3.31655273 -15.95234375 -3.31655273 -14.453125 -3.59765625 C-13.55239258 -3.77047119 -12.65166016 -3.94328613 -11.72363281 -4.12133789 C-6.79703661 -4.62654253 -3.99377594 -2.73317068 0 0 Z " fill="#FCFCFC" transform="translate(333.25,97.375)"/>
<path d="M0 0 C5.83012745 0.8935304 9.85866163 4.41489791 14.53125 7.86328125 C16.58564362 9.33764917 18.64033246 10.8116058 20.6953125 12.28515625 C21.69852539 13.01283203 22.70173828 13.74050781 23.73535156 14.49023438 C27.58198837 17.26317721 31.48682222 19.94476534 35.40625 22.61328125 C36.66314914 23.47599644 37.9196776 24.33925199 39.17578125 25.203125 C41.38034029 26.7178724 43.58622924 28.23061135 45.79296875 29.7421875 C47.17935547 30.69931641 47.17935547 30.69931641 48.59375 31.67578125 C49.3775 32.21460938 50.16125 32.7534375 50.96875 33.30859375 C51.505 33.71851563 52.04125 34.1284375 52.59375 34.55078125 C52.59375 34.88078125 52.59375 35.21078125 52.59375 35.55078125 C30.25792199 41.26133004 30.25792199 41.26133004 23.40234375 38.15234375 C20.23545834 36.20497433 17.47810523 33.78331259 14.70410156 31.31933594 C10.35008659 27.67050618 5.53717597 24.61662213 0.84375 21.42578125 C-2.91960717 18.81954275 -6.66581947 16.18979089 -10.40625 13.55078125 C-11.44587891 12.82407227 -12.48550781 12.09736328 -13.55664062 11.34863281 C-15.06774414 10.27693848 -15.06774414 10.27693848 -16.609375 9.18359375 C-17.52879883 8.53535645 -18.44822266 7.88711914 -19.39550781 7.21923828 C-20.05905273 6.66864746 -20.72259766 6.11805664 -21.40625 5.55078125 C-21.40625 4.89078125 -21.40625 4.23078125 -21.40625 3.55078125 C-18.55319871 3.04357213 -15.69908186 2.54484491 -12.84375 2.05078125 C-12.04388672 1.90769531 -11.24402344 1.76460938 -10.41992188 1.6171875 C-6.95469874 1.02314925 -3.47081353 0.561221 0 0 Z " fill="#FCFCFC" transform="translate(240.40625,108.44921875)"/>
<path d="M0 0 C-6.64714921 7.8022255 -13.42396208 15.45429376 -20.46020508 22.90893555 C-22.01903652 24.58457823 -23.55384224 26.28292131 -25.06274414 28.00366211 C-38.31430149 43.06376261 -38.31430149 43.06376261 -48.77490234 44.09423828 C-54.90306241 44.27058802 -60.93184422 43.84966741 -67 43 C-60.35285079 35.1977745 -53.57603792 27.54570624 -46.53979492 20.09106445 C-44.98096348 18.41542177 -43.44615776 16.71707869 -41.93725586 14.99633789 C-29.12832864 0.43927671 -19.23266346 -2.69297097 0 0 Z " fill="#FEFEFE" transform="translate(380,175)"/>
<path d="M0 0 C-6.64714921 7.8022255 -13.42396208 15.45429376 -20.46020508 22.90893555 C-22.01903652 24.58457823 -23.55384224 26.28292131 -25.06274414 28.00366211 C-38.31430149 43.06376261 -38.31430149 43.06376261 -48.77490234 44.09423828 C-54.90306241 44.27058802 -60.93184422 43.84966741 -67 43 C-60.35285079 35.1977745 -53.57603792 27.54570624 -46.53979492 20.09106445 C-44.98096348 18.41542177 -43.44615776 16.71707869 -41.93725586 14.99633789 C-29.12832864 0.43927671 -19.23266346 -2.69297097 0 0 Z " fill="#FDFDFD" transform="translate(295,175)"/>
<path d="M0 0 C0.66 0 1.32 0 2 0 C2.43699219 0.99580078 2.43699219 0.99580078 2.8828125 2.01171875 C6.91115984 10.68913361 11.04296082 14.59632511 20 18 C20 18.66 20 19.32 20 20 C19.33613281 20.29132813 18.67226562 20.58265625 17.98828125 20.8828125 C9.23331092 24.94716369 5.53591044 29.60016585 1 38 C-0.12614593 36.31078111 -1.23784616 34.61099257 -2.296875 32.87890625 C-6.69502336 25.86787944 -10.90325362 22.31335611 -19 20 C-19 19.34 -19 18.68 -19 18 C-18.40832031 17.75765625 -17.81664062 17.5153125 -17.20703125 17.265625 C-7.83256427 13.28950524 -4.1594508 9.2746903 0 0 Z " fill="#FEFDFA" transform="translate(175,45)"/>
<path d="M0 0 C2 2 2 2 3.25 5.3125 C5.35407976 10.41329942 8.85832307 13.02227792 13.875 15.3125 C14.57625 15.539375 15.2775 15.76625 16 16 C14.04297985 17.3046801 12.06417543 18.57742367 10.0625 19.8125 C5.39579391 23.1458615 2.8547982 26.59017191 1 32 C-0.3046801 30.04297985 -1.57742367 28.06417543 -2.8125 26.0625 C-6.45839881 20.95824167 -9.98175198 18.67951107 -16 17 C-13 15 -13 15 -10.125 13.75 C-5.3019054 11.04906703 -2.68347515 7.75750754 -0.6875 2.625 C-0.460625 1.75875 -0.23375 0.8925 0 0 Z " fill="#FEFCF6" transform="translate(474,247)"/>
<path d="M0 0 C2.02288564 2.02288564 2.56715018 3.22719412 3.625 5.8125 C5.66691619 10.10675886 8.24370814 11.82792067 12.390625 13.9921875 C12.92171875 14.32476562 13.4528125 14.65734375 14 15 C14 15.66 14 16.32 14 17 C12.42578125 18.0078125 12.42578125 18.0078125 10.3125 19.125 C5.66440965 21.87422573 3.44048609 25.27155819 1 30 C-1 27 -1 27 -2.625 24.0625 C-5.58349353 20.24760045 -8.61472975 18.80945617 -13 17 C-13 16.34 -13 15.68 -13 15 C-12.20335937 14.67128906 -12.20335937 14.67128906 -11.390625 14.3359375 C-6.34967812 12.07303069 -3.59497318 10.08614743 -1 5 C-0.21784412 2.2717496 -0.21784412 2.2717496 0 0 Z " fill="#FEFCF7" transform="translate(69,291)"/>
<path d="M0 0 C5 7.5 5 7.5 5 10 C5.78375 10.309375 6.5675 10.61875 7.375 10.9375 C10 12 10 12 12 13 C12 13.66 12 14.32 12 15 C11.0925 15.598125 10.185 16.19625 9.25 16.8125 C5.0627039 19.63087238 2.76988548 22.84517178 0 27 C-0.556875 25.9275 -1.11375 24.855 -1.6875 23.75 C-3.99303804 19.69684772 -6.80466319 17.0976684 -11 15 C-11 14.34 -11 13.68 -11 13 C-9.39125 12.2884375 -9.39125 12.2884375 -7.75 11.5625 C-3.03843394 8.93434449 -1.69220719 4.91896252 0 0 Z " fill="#FEFCF6" transform="translate(448,160)"/>
<path d="M0 0 C5 7.5 5 7.5 5 10 C5.78375 10.28875 6.5675 10.5775 7.375 10.875 C10 12 10 12 12 14 C11.45730469 14.37511719 10.91460937 14.75023437 10.35546875 15.13671875 C6.29719077 18.03966715 3.18018412 20.36710873 1 25 C0.505 24.29875 0.01 23.5975 -0.5 22.875 C-3.61075437 19.29763247 -7.14380244 16.72367352 -11 14 C-10.39414062 13.55269531 -9.78828125 13.10539063 -9.1640625 12.64453125 C-4.33727404 8.97652053 -1.52354759 5.95568602 0 0 Z " fill="#FEFBF5" transform="translate(51,192)"/>
<path d="M0 0 C0.66 0 1.32 0 2 0 C3.02611949 1.65071396 4.02308143 3.31970006 5 5 C6.58245275 6.75149165 6.58245275 6.75149165 8 8 C7.195625 8.61875 6.39125 9.2375 5.5625 9.875 C2.96125481 11.74164041 2.96125481 11.74164041 2 14 C-2.1424367 12.61918777 -3.32203099 10.40174442 -6 7 C-5.195625 6.401875 -4.39125 5.80375 -3.5625 5.1875 C-0.77672016 3.19052724 -0.77672016 3.19052724 0 0 Z " fill="#FEFAF2" transform="translate(285,45)"/>
<path d="M0 0 C3.0625 0.1875 3.0625 0.1875 5.0625 2.1875 C4.6875 5.3125 4.6875 5.3125 4.0625 8.1875 C-1.37190487 9.51591008 -1.37190487 9.51591008 -3.875 8.0625 C-4.9375 6.1875 -4.9375 6.1875 -4.6875 3.5625 C-3.63578571 0.23207143 -3.63578571 0.23207143 0 0 Z " fill="#F1F1F1" transform="translate(113.9375,164.8125)"/>
<path d="M0 0 C2.5 0.25 2.5 0.25 4.5 2.25 C4.75 4.75 4.75 4.75 4.5 7.25 C2.5 9.25 2.5 9.25 0 9.5 C-2.5 9.25 -2.5 9.25 -4.5 7.25 C-4.75 4.75 -4.75 4.75 -4.5 2.25 C-2.5 0.25 -2.5 0.25 0 0 Z " fill="#F8F8F8" transform="translate(114.5,182.75)"/>
</svg>
